<?xml version="1.0" standalone="no"?>
<!DOCTYPE svg PUBLIC "-//W3C//DTD SVG 1.1//EN" "http://www.w3.org/Graphics/SVG/1.1/DTD/svg11.dtd" >
<svg xmlns="http://www.w3.org/2000/svg">
<metadata>
Created by FontPrep 20130207 at Tue Sep  2 23:18:29 2014
 By Nodar Rocko Davituri
Copyright (c) 2003 by Bitstream, Inc. All Rights Reserved.
Copyright (c) 2006 by Tavmjong Bah. All Rights Reserved.
DejaVu changes are in public domain
</metadata>
<defs>
<font id="3be8e5cfce6e4770800bc15f8031d83e" horiz-adv-x='1024' >
  <font-face 
    font-family="DejaVuSansM-Bold"
    font-weight="700"
    font-stretch="normal"
    units-per-em="2048"
    panose-1="2 0 8 3 0 0 0 0 0 0"
    ascent="1556"
    descent="-492"
    x-height="1120"
    cap-height="1493"
    bbox="-115 -483 2281 1907"
    underline-thickness="90"
    underline-position="-85"
    unicode-range="U+0020-10F0"
  />
<missing-glyph horiz-adv-x="1024" 
 />
    <glyph glyph-name=".notdef" horiz-adv-x="1024" 
 />
    <glyph glyph-name=".null" horiz-adv-x="0" 
 />
    <glyph glyph-name="nonmarkingreturn" horiz-adv-x="682" 
 />
    <glyph glyph-name="space" unicode=" " horiz-adv-x="713" 
 />
    <glyph glyph-name="exclam" unicode="!" horiz-adv-x="934" 
d="M287 356h360v-356h-360v356zM287 1493h360v-573l-51 -418h-258l-51 418v573z" />
    <glyph glyph-name="quotedbl" unicode="&#x22;" horiz-adv-x="1067" 
d="M432 1493v-555h-237v555h237zM872 1493v-555h-237v555h237z" />
    <glyph glyph-name="numbersign" unicode="#" horiz-adv-x="1716" 
d="M1024 872h-264l-70 -274h264zM1577 1085v-213h-330l-69 -274h284v-215h-336l-96 -383h-221l96 383h-264l-96 -383h-223l96 383h-279v215h328l70 274h-283v213h338l96 385h223l-96 -385h264l97 385h221l-97 -385h277z" />
    <glyph glyph-name="dollar" unicode="$" 
d="M969 365q1 68 -39 101t-135 44v-278q174 2 174 133zM477 968q0 -114 156 -132v261q-73 -5 -115 -39t-41 -90zM1286 397q0 -369 -491 -395v-303h-162l-1 301q-242 8 -470 92v262q229 -116 471 -126v311l-33 6q-238 42 -340 132q-100 91 -100 264t122 275q124 100 350 109
l1 231h162v-227q204 -16 401 -69v-254q-203 86 -401 94v-287l32 -6q254 -41 357 -133q102 -94 102 -277z" />
    <glyph glyph-name="percent" unicode="%" horiz-adv-x="2052" 
d="M464 1352q-72 0 -110 -62q-39 -62 -39 -176t39 -178q39 -62 111 -62t111 62q38 64 38 178t-39 176t-111 62zM465 1520q185 0 293 -108q106 -111 106 -298t-106 -298q-108 -109 -293 -109t-293 109q-106 111 -106 298t106 298q108 108 293 108zM670 -29h-221l933 1549h222
zM1587 784q187 0 293 -108t107 -296q0 -188 -107 -298t-293 -111q-185 0 -293 110q-108 109 -108 297t107 297t294 109zM1587 616q-73 0 -111 -61t-38 -175t38 -178q40 -61 112 -61q72 1 109 63q38 62 38 176t-38 175t-110 61z" />
    <glyph glyph-name="ampersand" unicode="&#x26;" horiz-adv-x="1786" 
d="M469 506q-1 -115 85 -196t211 -81t226 82l-391 432q-131 -95 -131 -237zM123 467q0 144 71 259q73 112 234 218q-82 103 -82 217q0 163 128 261t320 98q193 0 412 -58v-278q-186 94 -342 94q-76 0 -119 -29t-43 -74q0 -77 97 -184l409 -450q103 138 113 354h311
q-31 -363 -225 -573l293 -322h-424l-98 109q-207 -138 -469 -138q-262 1 -424 139t-162 357z" />
    <glyph glyph-name="quotesingle" unicode="'" horiz-adv-x="627" 
d="M432 1493v-555h-237v555h237z" />
    <glyph glyph-name="parenleft" unicode="(" horiz-adv-x="936" 
d="M176 642q0 429 299 912h297q-256 -476 -256 -914t256 -910h-297q-299 483 -299 912z" />
    <glyph glyph-name="parenright" unicode=")" horiz-adv-x="936" 
d="M420 642q0 436 -256 912h297q299 -483 299 -912t-299 -912h-297q256 476 256 912z" />
    <glyph glyph-name="asterisk" unicode="*" horiz-adv-x="1071" 
d="M621 569h-170v344l-334 -184l-76 141l334 174l-334 173l76 141l334 -182v344h170v-344l333 182l76 -141l-330 -173l330 -174l-76 -141l-333 184v-344z" />
    <glyph glyph-name="plus" unicode="+" horiz-adv-x="1716" 
d="M977 1284v-524h522v-236h-522v-524h-238v524h-522v236h522v524h238z" />
    <glyph glyph-name="comma" unicode="," horiz-adv-x="778" 
d="M209 387h360v-305l-247 -373h-213l100 373v305z" />
    <glyph glyph-name="hyphen" unicode="-" horiz-adv-x="850" 
d="M111 735h628v-291h-628v291z" />
    <glyph glyph-name="period" unicode="." horiz-adv-x="778" 
d="M209 387h360v-387h-360v387z" />
    <glyph glyph-name="slash" unicode="/" horiz-adv-x="748" 
d="M526 1493h222l-527 -1683h-221z" />
    <glyph glyph-name="zero" unicode="0" 
d="M98 746q0 372 160 573t454 201t455 -201q160 -201 160 -573t-160 -574q-161 -201 -455 -201t-454 201q-160 202 -160 574zM712 1257q-124 0 -176 -115q-52 -116 -53 -396q0 -280 53 -396q52 -116 176 -117q124 1 177 117t53 396t-52 396q-54 115 -178 115z" />
    <glyph glyph-name="one" unicode="1" 
d="M240 266h340v965l-349 -72v262l347 72h366v-1227h340v-266h-1044v266z" />
    <glyph glyph-name="two" unicode="2" 
d="M687 1520q255 0 403 -118t147 -329q0 -121 -63 -227t-265 -283l-319 -280h657v-283h-1085v283l545 481q143 129 143 260q0 104 -70 169q-71 64 -188 64q-184 0 -426 -153v328q266 88 521 88z" />
    <glyph glyph-name="three" unicode="3" 
d="M1262 424q0 -221 -170 -338q-171 -115 -496 -115q-239 0 -459 74v297q216 -109 424 -109q152 1 234 53t82 152q0 207 -330 207h-154v248h162q287 0 287 184q0 87 -70 133t-194 47q-185 0 -377 -83v282q230 64 446 64q580 0 580 -383q0 -261 -273 -332q308 -80 308 -381z
" />
    <glyph glyph-name="four" unicode="4" 
d="M1118 1493v-942h213v-279h-213v-272h-364v272h-662v330l598 891h428zM754 551v625l-422 -625h422z" />
    <glyph glyph-name="five" unicode="5" 
d="M596 233q141 1 221 69t80 186q-1 118 -81 186t-234 67q-153 0 -365 -88v840h957v-283h-650v-231q93 25 181 25q272 0 425 -136q152 -138 152 -381t-166 -379t-440 -137q-274 0 -518 99v303q241 -140 438 -140z" />
    <glyph glyph-name="six" unicode="6" 
d="M805 985q229 1 369 -133t141 -363q0 -229 -157 -373q-156 -144 -434 -145q-278 0 -438 196t-159 563q0 367 187 576q185 212 511 212q202 0 392 -64v-276q-184 88 -349 88q-166 0 -262 -95t-112 -284q131 98 311 98zM944 475q0 262 -202 262t-203 -262q1 -262 203 -262
t202 262z" />
    <glyph glyph-name="seven" unicode="7" 
d="M137 1493h1125v-217l-582 -1276h-375l551 1210h-719v283z" />
    <glyph glyph-name="eight" unicode="8" 
d="M901 1094q1 90 -49 137t-141 47t-140 -48t-49 -136q0 -90 49 -138t140 -47q91 0 141 48q49 47 49 137zM1266 1133q0 -257 -275 -338q307 -86 307 -375q0 -222 -148 -336t-438 -113q-290 0 -438 113t-149 336q0 291 307 375q-274 81 -274 338q0 189 141 288t413 99
t413 -98q141 -99 141 -289zM712 668q-106 0 -164 -58t-59 -170q0 -111 58 -169t166 -58q109 0 165 58q56 59 56 169t-57 170q-59 58 -165 58z" />
    <glyph glyph-name="nine" unicode="9" 
d="M477 1014q0 -262 203 -262t203 262t-203 262t-203 -262zM552 223q166 -1 263 95t113 284q-137 -100 -312 -100q-230 0 -370 133t-140 363t156 375q157 145 434 145q278 0 438 -196t160 -562t-187 -578q-188 -211 -513 -211q-207 0 -389 62v276q181 -86 347 -86z" />
    <glyph glyph-name="colon" unicode=":" horiz-adv-x="819" 
d="M229 387h361v-387h-361v387zM229 1120h361v-387h-361v387z" />
    <glyph glyph-name="semicolon" unicode=";" horiz-adv-x="819" 
d="M229 1120h361v-387h-361v387zM229 387h361v-305l-248 -373h-213l100 373v305z" />
    <glyph glyph-name="less" unicode="&#x3c;" horiz-adv-x="1716" 
d="M1499 973l-964 -332l964 -330v-250l-1282 463v236l1282 463v-250z" />
    <glyph glyph-name="equal" unicode="=" horiz-adv-x="1716" 
d="M217 532h1282v-237h-1282v237zM217 987h1282v-235h-1282v235z" />
    <glyph glyph-name="greater" unicode="&#x3e;" horiz-adv-x="1716" 
d="M217 973v250l1282 -463v-236l-1282 -463v250l965 330z" />
    <glyph glyph-name="question" unicode="?" horiz-adv-x="1188" 
d="M348 356h361v-356h-361v356zM555 1520q245 0 373 -100t127 -290q1 -98 -39 -176t-133 -166l-64 -57q-67 -61 -89 -99t-21 -83v-45h-361v49q0 82 33 146t139 161l64 58q58 54 84 100t26 102q0 58 -48 98t-134 39q-164 0 -371 -133v314q235 82 414 82z" />
    <glyph glyph-name="at" unicode="@" horiz-adv-x="2048" 
d="M989 88q-171 0 -279 125t-108 325t108 324t279 125q90 0 156 -40t96 -111v131h209v-693q126 20 196 120t70 257q0 202 -117 348q-93 121 -237 187t-285 67q-470 0 -673 -373q-82 -158 -82 -322t52 -294q52 -128 156 -229q102 -101 230 -152t264 -51t263 46
q126 46 216 128l107 -162q-256 -200 -572 -200q-379 0 -641 256t-262 643q0 181 68 347t194 290t294 192q169 68 371 68t383 -84t306 -248q152 -196 152 -460t-163 -414t-460 -150h-39v154q-30 -72 -96 -111t-156 -39zM831 538q0 -124 52 -194q53 -70 143 -70t142 72t53 192
q0 122 -53 192q-54 70 -144 71q-90 0 -140 -71q-53 -68 -53 -192z" />
    <glyph glyph-name="A" unicode="A" horiz-adv-x="1585" 
d="M588 549h409l-204 594zM1094 272h-602l-95 -272h-387l553 1493h459l553 -1493h-387z" />
    <glyph glyph-name="B" unicode="B" horiz-adv-x="1561" 
d="M766 1493q314 0 452 -94t138 -309t-199 -291q125 -35 193 -133t67 -238q0 -428 -590 -428h-639v1493h578zM799 262q233 0 233 196t-233 195h-226v-391h226zM971 1073q0 158 -185 158h-213v-316h213q185 0 185 158z" />
    <glyph glyph-name="C" unicode="C" horiz-adv-x="1503" 
d="M102 744q0 358 218 568q219 208 591 208q247 0 461 -111v-309q-205 141 -420 141q-216 1 -334 -131t-118 -364t118 -364t334 -132t420 141v-309q-214 -111 -461 -111q-375 0 -592 208q-217 207 -217 565z" />
    <glyph glyph-name="D" unicode="D" horiz-adv-x="1700" 
d="M188 1493h406q343 -1 508 -49t277 -156q214 -206 214 -542t-207 -533q-120 -115 -288 -164t-504 -49h-406v1493zM573 1202v-911h138q235 0 361 117q124 118 124 340t-124 338t-361 116h-138z" />
    <glyph glyph-name="E" unicode="E" horiz-adv-x="1399" 
d="M188 1493h1039v-291h-654v-278h615v-291h-615v-342h676v-291h-1061v1493z" />
    <glyph glyph-name="F" unicode="F" horiz-adv-x="1399" 
d="M188 1493h1039v-291h-654v-278h615v-291h-615v-633h-385v1493z" />
    <glyph glyph-name="G" unicode="G" horiz-adv-x="1681" 
d="M911 -29q-375 0 -592 208q-217 207 -217 567t222 567t608 207q298 0 543 -111v-309q-251 141 -488 141t-362 -129q-125 -128 -125 -366t120 -367t341 -129q127 0 204 31v290h-235v258h600v-718q-288 -140 -619 -140z" />
    <glyph glyph-name="H" unicode="H" horiz-adv-x="1714" 
d="M188 1493h385v-569h568v569h385v-1493h-385v633h-568v-633h-385v1493z" />
    <glyph glyph-name="I" unicode="I" horiz-adv-x="762" 
d="M188 1493h385v-1493h-385v1493z" />
    <glyph glyph-name="J" unicode="J" horiz-adv-x="762" 
d="M-55 -119q243 0 243 264v1348h385v-1348q0 -278 -151 -417q-153 -138 -459 -138h-78v291h60z" />
    <glyph glyph-name="K" unicode="K" horiz-adv-x="1587" 
d="M188 1493h385v-545l555 545h447l-719 -707l793 -786h-482l-594 588v-588h-385v1493z" />
    <glyph glyph-name="L" unicode="L" horiz-adv-x="1305" 
d="M188 1493h385v-1202h676v-291h-1061v1493z" />
    <glyph glyph-name="M" unicode="M" horiz-adv-x="2038" 
d="M188 1493h490l340 -799l342 799h489v-1493h-364v1092l-344 -805h-244l-344 805v-1092h-365v1493z" />
    <glyph glyph-name="N" unicode="N" horiz-adv-x="1714" 
d="M188 1493h430l543 -1024v1024h365v-1493h-430l-543 1024v-1024h-365v1493z" />
    <glyph glyph-name="O" unicode="O" horiz-adv-x="1741" 
d="M871 1520q359 0 563 -206t204 -568q0 -364 -204 -570t-563 -205q-359 -1 -564 205t-205 569t204 569q206 206 565 206zM870 1241q-176 0 -273 -130q-97 -129 -97 -365t97 -366t273 -130t274 130q97 130 97 366t-97 365q-98 130 -274 130z" />
    <glyph glyph-name="P" unicode="P" horiz-adv-x="1501" 
d="M573 1214v-417h213q112 1 173 55t61 154t-61 154t-173 54h-213zM188 1493h639q286 -1 438 -127t152 -360q-1 -234 -153 -361t-437 -127h-254v-518h-385v1493z" />
    <glyph glyph-name="Q" unicode="Q" horiz-adv-x="1741" 
d="M870 1241q-176 0 -273 -130t-97 -368q0 -237 94 -365t274 -128q179 0 276 130t97 366t-97 365q-98 130 -274 130zM881 -27q-369 0 -574 204q-205 203 -205 567t204 570q206 206 566 206t564 -204q202 -205 202 -571q0 -253 -108 -435t-309 -273l301 -336h-367l-244 272
h-30z" />
    <glyph glyph-name="R" unicode="R" horiz-adv-x="1577" 
d="M1346 1081q0 -293 -287 -383q79 -18 141 -81t127 -193l209 -424h-410l-182 371q-56 113 -112 153t-150 41h-109v-565h-385v1493h588q296 0 433 -99t137 -313zM735 831q122 1 174 45t52 148q-1 104 -53 146q-52 44 -173 44h-162v-383h162z" />
    <glyph glyph-name="S" unicode="S" horiz-adv-x="1475" 
d="M1325 459q0 -488 -583 -488q-291 0 -582 107v325q287 -153 534 -153q126 0 193 42t67 116t-46 112t-181 68l-149 33q-223 48 -328 153q-103 106 -103 283q0 223 144 343t404 120t532 -74v-316q-247 111 -461 111q-270 1 -270 -145q0 -70 44 -104t162 -58l164 -33
q248 -49 354 -151t105 -291z" />
    <glyph glyph-name="T" unicode="T" horiz-adv-x="1397" 
d="M10 1493h1376v-291h-495v-1202h-385v1202h-496v291z" />
    <glyph glyph-name="U" unicode="U" horiz-adv-x="1663" 
d="M188 1493h385v-895q0 -187 61 -264q59 -80 197 -80q139 0 199 79t60 265v895h385v-895q1 -318 -159 -472t-484 -155q-324 1 -484 155t-160 472v895z" />
    <glyph glyph-name="V" unicode="V" horiz-adv-x="1585" 
d="M10 1493h387l396 -1102l395 1102h387l-553 -1493h-459z" />
    <glyph glyph-name="W" unicode="W" horiz-adv-x="2259" 
d="M61 1493h369l258 -1085l256 1085h371l256 -1085l258 1085h366l-352 -1493h-444l-271 1135l-268 -1135h-444z" />
    <glyph glyph-name="X" unicode="X" horiz-adv-x="1579" 
d="M1020 762l518 -762h-401l-349 510l-346 -510h-403l518 762l-498 731h402l327 -481l326 481h404z" />
    <glyph glyph-name="Y" unicode="Y" horiz-adv-x="1483" 
d="M934 0h-385v629l-569 864h421l340 -532l340 532h422l-569 -864v-629z" />
    <glyph glyph-name="Z" unicode="Z" horiz-adv-x="1485" 
d="M115 1493h1255v-233l-801 -969h824v-291h-1301v233l801 969h-778v291z" />
    <glyph glyph-name="bracketleft" unicode="[" horiz-adv-x="936" 
d="M176 1556h621v-225h-281v-1376h281v-225h-621v1826z" />
    <glyph glyph-name="backslash" unicode="\" horiz-adv-x="748" 
d="M526 -190l-526 1683h221l527 -1683h-222z" />
    <glyph glyph-name="bracketright" unicode="]" horiz-adv-x="936" 
d="M760 -270h-621v225h281v1376h-281v225h621v-1826z" />
    <glyph glyph-name="asciicircum" unicode="^" horiz-adv-x="1716" 
d="M981 1493l528 -557h-241l-410 301l-409 -301h-242l528 557h246z" />
    <glyph glyph-name="underscore" unicode="_" horiz-adv-x="1024" 
d="M1024 -293v-190h-1024v190h1024z" />
    <glyph glyph-name="grave" unicode="`" horiz-adv-x="1024" 
d="M377 1638l282 -376h-196l-369 376h283z" />
    <glyph glyph-name="a" unicode="a" horiz-adv-x="1382" 
d="M649 1147q303 1 437 -119t135 -389v-639h-361v166q-74 -104 -162 -150t-219 -45q-173 0 -283 101q-108 102 -108 264q0 198 136 290t425 91h211v28q0 85 -67 125q-68 39 -209 39q-230 0 -398 -92v273q236 57 463 57zM674 504q-225 0 -225 -150q-1 -68 45 -106t137 -39
q91 1 160 73t69 181v41h-186z" />
    <glyph glyph-name="b" unicode="b" horiz-adv-x="1466" 
d="M891 1147q217 0 350 -164t133 -424t-133 -424t-350 -164t-361 191v-162h-358v1556h358v-600q144 191 361 191zM530 559q0 -160 61 -244t176 -84t177 84q60 84 60 244t-60 244q-62 84 -177 84t-176 -84t-61 -244z" />
    <glyph glyph-name="c" unicode="c" horiz-adv-x="1214" 
d="M779 891q-151 0 -235 -87q-83 -89 -83 -245t83 -245q84 -87 244 -87t289 99v-293q-169 -62 -344 -62q-302 0 -474 155q-171 156 -171 433t171 433q172 155 474 155q177 0 344 -62v-292q-147 98 -298 98z" />
    <glyph glyph-name="d" unicode="d" horiz-adv-x="1466" 
d="M698 231q114 0 176 84q60 84 60 244t-60 244q-62 84 -176 84q-114 1 -174 -83t-61 -245q1 -161 61 -245t174 -83zM92 559q0 260 133 424t349 164t360 -191v600h360v-1556h-360v162q-142 -191 -359 -191t-350 164t-133 424z" />
    <glyph glyph-name="e" unicode="e" horiz-adv-x="1389" 
d="M922 682q0 102 -59 164t-161 63q-102 0 -164 -58q-64 -58 -81 -169h465zM729 -29q-305 0 -473 154t-168 431t165 434t443 157t436 -159q158 -160 158 -425v-102h-837q28 -252 309 -252q227 0 475 135v-276q-261 -97 -508 -97z" />
    <glyph glyph-name="f" unicode="f" horiz-adv-x="891" 
d="M909 1556v-235h-198q-76 1 -106 -27t-30 -96v-78h306v-256h-306v-864h-358v864h-178v256h178v78q-1 182 101 270t317 88h274z" />
    <glyph glyph-name="g" unicode="g" horiz-adv-x="1466" 
d="M698 887q-112 -1 -174 -83t-61 -234q-1 -152 59 -231t174 -79t176 82t62 232q0 148 -62 230t-174 83zM92 574q0 250 134 410t350 161q217 0 358 -191v166h360v-1007q0 -269 -170 -413q-172 -142 -495 -142q-207 0 -400 65v279q189 -107 364 -107q177 1 259 77t82 241v77
q-143 -190 -358 -190q-216 0 -350 162t-134 412z" />
    <glyph glyph-name="h" unicode="h" horiz-adv-x="1458" 
d="M892 1147q406 0 406 -465v-682h-360v520q0 146 -7 202t-25 86q-18 29 -55 49t-81 20q-112 0 -176 -86t-64 -240v-551h-358v1556h358v-600q158 191 362 191z" />
    <glyph glyph-name="i" unicode="i" horiz-adv-x="702" 
d="M172 1556h358v-292h-358v292zM172 1120h358v-1120h-358v1120z" />
    <glyph glyph-name="j" unicode="j" horiz-adv-x="702" 
d="M172 1556h358v-292h-358v292zM172 1120h358v-1100q0 -224 -108 -344q-109 -118 -313 -118h-177v235h62q102 1 140 47t38 180v1100z" />
    <glyph glyph-name="k" unicode="k" horiz-adv-x="1362" 
d="M172 1556h358v-847l412 411h416l-547 -514l590 -606h-434l-437 467v-467h-358v1556z" />
    <glyph glyph-name="l" unicode="l" horiz-adv-x="702" 
d="M172 1556h358v-1556h-358v1556z" />
    <glyph glyph-name="m" unicode="m" horiz-adv-x="2134" 
d="M1210 934q139 213 367 213q193 0 294 -119t101 -346v-682h-360v584l2 27v40q0 118 -35 172t-125 54t-146 -84q-56 -86 -57 -243v-550h-360v584q0 185 -32 239t-125 54q-92 0 -148 -85t-56 -241v-551h-360v1120h360v-164q133 191 340 191q116 1 204 -55t136 -158z" />
    <glyph glyph-name="n" unicode="n" horiz-adv-x="1458" 
d="M892 1147q406 0 406 -465v-682h-360v522q0 144 -7 200t-25 86q-18 29 -55 49t-81 20q-112 0 -176 -86t-64 -240v-551h-358v1120h358v-164q158 191 362 191z" />
    <glyph glyph-name="o" unicode="o" horiz-adv-x="1407" 
d="M88 559q0 277 163 433t453 155q290 0 452 -156t163 -432q-1 -276 -163 -432t-452 -156q-290 -1 -453 155t-163 433zM946 559q0 159 -62 245t-180 87q-118 0 -180 -86t-63 -246q1 -160 63 -246t180 -86q118 1 180 87t62 245z" />
    <glyph glyph-name="p" unicode="p" horiz-adv-x="1466" 
d="M767 887q-115 0 -176 -84t-61 -244t61 -244t176 -84t177 84q60 84 60 244t-60 244q-62 84 -177 84zM1374 559q0 -260 -133 -424t-350 -164t-361 191v-588h-358v1546h358v-164q143 191 361 191q217 0 350 -164t133 -424z" />
    <glyph glyph-name="q" unicode="q" horiz-adv-x="1466" 
d="M92 558q0 260 133 424q134 163 351 163t358 -191v166h360v-1546h-360v588q-142 -191 -359 -191t-350 164q-133 163 -133 423zM698 887q-114 1 -174 -83t-61 -245q1 -161 61 -245t174 -83q114 0 176 84q60 84 60 244t-60 244q-62 84 -176 84z" />
    <glyph glyph-name="r" unicode="r" horiz-adv-x="1010" 
d="M817 858q-137 0 -213 -88q-74 -91 -74 -254v-516h-358v1120h358v-184q70 111 159 161t214 50l39 -1q7 -1 61 -7l1 -324q-88 43 -187 43z" />
    <glyph glyph-name="s" unicode="s" horiz-adv-x="1219" 
d="M620 909q-198 0 -198 -104q0 -44 38 -67t134 -33l63 -9q273 -34 369 -114t96 -252q0 -359 -526 -359q-219 0 -473 70v272q211 -104 435 -104t224 115q0 48 -36 72q-38 23 -146 36l-63 8q-239 30 -335 111t-96 253q0 344 496 343q197 0 445 -62v-272q-230 96 -427 96z" />
    <glyph glyph-name="t" unicode="t" horiz-adv-x="979" 
d="M563 1438v-318h369v-256h-369v-475q0 -77 31 -105t123 -28h184v-256h-307q-212 0 -300 88t-89 301v475h-178v256h178v318h358z" />
    <glyph glyph-name="u" unicode="u" horiz-adv-x="1458" 
d="M160 436v684h360v-112l-2 -412q0 -232 27 -274q51 -80 153 -80t166 86t64 239v553h358v-1120h-358v162q-159 -191 -362 -191q-406 0 -406 465z" />
    <glyph glyph-name="v" unicode="v" horiz-adv-x="1335" 
d="M31 1120h358l279 -774l278 774h359l-441 -1120h-393z" />
    <glyph glyph-name="w" unicode="w" horiz-adv-x="1892" 
d="M72 1120h348l188 -772l189 772h299l188 -764l189 764h348l-295 -1120h-391l-189 770l-188 -770h-391z" />
    <glyph glyph-name="x" unicode="x" horiz-adv-x="1321" 
d="M455 573l-404 547h379l229 -332l232 332h379l-404 -545l424 -575h-379l-252 354l-249 -354h-379z" />
    <glyph glyph-name="y" unicode="y" horiz-adv-x="1335" 
d="M412 -442h-207v235h112q90 0 133 29q42 29 64 104l10 31l-499 1163h358l301 -760l256 760h358l-471 -1226q-70 -185 -165 -262q-97 -74 -250 -74z" />
    <glyph glyph-name="z" unicode="z" horiz-adv-x="1192" 
d="M117 1120h977v-250l-590 -614h590v-256h-1002v250l590 614h-565v256z" />
    <glyph glyph-name="braceleft" unicode="{" horiz-adv-x="1458" 
d="M1202 -109v-225h-217q-218 0 -318 88t-100 281v192q0 149 -54 209q-55 58 -196 58h-61v223h61q142 1 196 59t54 207v205q0 192 100 280t318 88h217v-225h-69q-140 1 -183 -43t-43 -186v-166q0 -158 -45 -228t-155 -96q111 -27 155 -98t45 -227v-166q0 -143 43 -187
t183 -43h69z" />
    <glyph glyph-name="bar" unicode="|" horiz-adv-x="748" 
d="M487 1565v-2048h-227v2048h227z" />
    <glyph glyph-name="braceright" unicode="}" horiz-adv-x="1458" 
d="M256 -109h70q139 -1 182 43t43 187v166q0 157 45 227t156 98q-111 26 -156 96t-45 228v166q0 142 -43 186t-182 43h-70v225h217q218 0 318 -88t100 -280v-205q0 -149 54 -207t196 -59h61v-223h-61q-141 0 -196 -58q-54 -60 -54 -209v-192q0 -193 -100 -281t-318 -88h-217
v225z" />
    <glyph glyph-name="asciitilde" unicode="~" horiz-adv-x="1716" 
d="M1141 690q165 0 358 160v-244q-111 -82 -197 -116t-190 -33q-104 0 -244 58q-4 2 -14 6t-17 7q-154 66 -262 66q-169 0 -358 -160v244q110 82 196 116q85 34 193 33q108 0 255 -63q7 -3 13 -6t18 -7q153 -61 249 -61z" />
    <glyph glyph-name="uni00A0" unicode="&#xa0;" horiz-adv-x="713" 
 />
    <glyph glyph-name="exclamdown" unicode="&#xa1;" horiz-adv-x="934" 
d="M287 1137v356h360v-356h-360zM287 0v573l51 418h258l51 -418v-573h-360z" />
    <glyph glyph-name="cent" unicode="&#xa2;" 
d="M864 891v-663q183 4 297 98v-293q-169 -62 -287 -62h-10v-284h-162v288q-528 81 -528 600q0 245 134 390t394 180v287h162l1 -287q153 -7 296 -60v-292q-151 98 -282 98h-15zM702 858q-155 -86 -155 -300t155 -298v598z" />
    <glyph glyph-name="sterling" unicode="&#xa3;" 
d="M967 1257q-137 -1 -193 -63t-57 -193v-170h373v-239h-373v-326h538v-266h-1130v266h227v326h-194v239h194v170q0 271 127 395t402 124q187 0 362 -54v-286q-139 77 -276 77z" />
    <glyph glyph-name="currency" unicode="&#xa4;" horiz-adv-x="1303" 
d="M652 422q92 0 156 64t64 155t-64 155t-154 64q-92 0 -156 -64t-64 -156t63 -155t155 -63zM225 641q0 123 60 217l-209 205l153 154l207 -207q93 59 210 59q116 0 226 -55l207 207l152 -154l-207 -207q57 -110 57 -226t-59 -208l207 -207l-154 -153l-207 206
q-91 -59 -212 -59t-222 55l-207 -207l-153 154l207 207q-56 96 -56 219z" />
    <glyph glyph-name="yen" unicode="&#xa5;" 
d="M1358 416h-455v-416h-381v416h-454v194h454v66l-49 86h-405v192h292l-335 539h399l289 -461l288 461h400l-336 -539h293v-192h-406l-49 -86v-66h455v-194z" />
    <glyph glyph-name="brokenbar" unicode="&#xa6;" horiz-adv-x="748" 
d="M487 408v-758h-227v758h227zM487 1432v-758h-227v758h227z" />
    <glyph glyph-name="section" unicode="&#xa7;" horiz-adv-x="1024" 
d="M299 702q0 -66 61 -116q62 -49 244 -115q135 47 135 154q0 67 -69 119t-236 112q-135 -56 -135 -154zM571 1313q-151 0 -151 -96q0 -66 188 -146q38 -16 39 -16q209 -89 289 -175t80 -212q0 -230 -230 -324q152 -80 152 -226t-121 -230q-122 -83 -309 -83t-393 58v237
q238 -84 354 -84q67 0 105 25t38 65q0 70 -180 144q-38 14 -55 22q-203 87 -283 177t-80 219q0 207 224 309q-76 52 -108 107t-32 130q0 144 114 225q115 81 300 81t373 -58v-227q-199 78 -314 78z" />
    <glyph glyph-name="dieresis" unicode="&#xa8;" horiz-adv-x="1024" 
d="M592 1585h235v-246h-235v246zM197 1585h235v-246h-235v246z" />
    <glyph glyph-name="copyright" unicode="&#xa9;" horiz-adv-x="2048" 
d="M1024 1485q305 0 523 -218t218 -526q0 -305 -217 -522q-219 -219 -524 -219t-524 219q-217 217 -217 523t218 525q218 218 523 218zM1024 154q122 0 226 43t191 130t130 189t43 226t-42 225t-132 189q-88 88 -190 132q-102 43 -224 43q-121 -1 -227 -45t-193 -131
q-88 -87 -130 -188t-42 -225t43 -226t129 -188t192 -130q104 -44 226 -44zM1100 983q-114 0 -178 -64q-64 -65 -64 -179t63 -177t185 -63t217 71v-213q-131 -45 -258 -45q-211 0 -338 117t-127 312t127 311t338 116q143 0 258 -43v-215q-108 72 -223 72z" />
    <glyph glyph-name="ordfeminine" unicode="&#xaa;" horiz-adv-x="1155" 
d="M731 1239q0 115 -171 115t-335 -70v180q182 56 336 56q225 0 333 -88t107 -267v-448h-245v127q-108 -148 -289 -148q-145 0 -227 67t-82 195q0 260 436 261h137v20zM406 973q0 -115 140 -115q73 0 130 57t57 144v22h-90q-131 1 -184 -25t-53 -83zM176 573h813v-200h-813
v200z" />
    <glyph glyph-name="guillemotleft" unicode="&#xab;" horiz-adv-x="1323" 
d="M1130 1063v-242l-292 -221l292 -221v-242l-493 369v186zM651 1063v-242l-293 -221l293 -221v-242l-493 369v186z" />
    <glyph glyph-name="logicalnot" unicode="&#xac;" horiz-adv-x="1716" 
d="M217 909h1282v-622h-235v385h-1047v237z" />
    <glyph glyph-name="uni00AD" unicode="&#xad;" horiz-adv-x="850" 
d="M111 735h628v-291h-628v291z" />
    <glyph glyph-name="registered" unicode="&#xae;" horiz-adv-x="2048" 
d="M1024 1485q305 0 523 -218t218 -526q0 -305 -217 -522q-219 -219 -524 -219t-524 219q-217 217 -217 523t218 525q218 218 523 218zM1004 1174q350 0 350 -240q0 -85 -54 -142t-147 -73q86 -48 141 -160l111 -221h-229l-107 213q-69 143 -125 143h-12v-356h-213v836h285z
M967 829q157 -1 157 103t-157 104h-35v-207h35zM1024 154q122 0 226 43t191 130t130 189t43 226t-42 225t-132 189q-88 88 -190 132q-102 43 -224 43q-121 -1 -227 -45t-193 -131q-88 -87 -130 -188t-42 -225t43 -226t129 -188t192 -130q104 -44 226 -44z" />
    <glyph glyph-name="macron" unicode="&#xaf;" horiz-adv-x="1024" 
d="M197 1556h630v-188h-630v188z" />
    <glyph glyph-name="degree" unicode="&#xb0;" horiz-adv-x="1024" 
d="M844 1201q0 -67 -25 -129q-52 -129 -179 -178q-59 -26 -130 -26q-142 0 -237 95t-95 236t96 239q98 96 236 96t236 -98t98 -235zM511 1372q-71 0 -121 -50t-50 -122t49 -121t123 -49t122 49q50 49 50 121t-50 122q-52 50 -123 50z" />
    <glyph glyph-name="plusminus" unicode="&#xb1;" horiz-adv-x="1716" 
d="M217 238h1282v-238h-1282v238zM977 1284v-354h522v-236h-522v-354h-238v354h-522v236h522v354h238z" />
    <glyph glyph-name="uni00B2" unicode="&#xb2;" horiz-adv-x="897" 
d="M444 1520q153 0 244 -64q90 -66 90 -176q0 -72 -35 -132t-137 -147l-194 -165h370v-168h-673v153l313 266q113 97 113 173q0 50 -36 81t-96 31q-122 0 -288 -92v186q176 54 329 54z" />
    <glyph glyph-name="uni00B3" unicode="&#xb3;" horiz-adv-x="897" 
d="M421 1520q163 0 253 -56t90 -161q0 -69 -45 -117t-127 -66q94 -18 144 -73t50 -136q0 -258 -399 -258q-160 0 -297 45v174q136 -73 242 -73q211 0 211 124t-221 124h-74v137h84q98 0 143 23t45 75q0 90 -158 90q-108 0 -245 -53v166q140 35 304 35z" />
    <glyph glyph-name="acute" unicode="&#xb4;" horiz-adv-x="1024" 
d="M647 1638h283l-369 -376h-196z" />
    <glyph glyph-name="mu" unicode="&#xb5;" horiz-adv-x="1507" 
d="M535 -428h-361v1548h361v-651q1 -229 203 -229t202 229v651h360v-749q0 -69 16 -99q18 -28 53 -28t73 22v-250q-104 -45 -192 -45q-170 0 -236 158q-92 -158 -271 -158q-149 0 -208 95v-494z" />
    <glyph glyph-name="paragraph" unicode="&#xb6;" horiz-adv-x="1303" 
d="M604 1493h520v-1690h-190v1543h-189v-1543h-190v846q-206 27 -316 135t-110 293q1 185 131 301t344 115z" />
    <glyph glyph-name="periodcentered" unicode="&#xb7;" horiz-adv-x="778" 
d="M209 905h360v-387h-360v387z" />
    <glyph glyph-name="cedilla" unicode="&#xb8;" horiz-adv-x="1024" 
d="M421 -254q130 0 130 91q0 45 -88 163h139q113 -119 113 -214t-61 -142q-63 -45 -189 -45q-104 0 -202 26l-1 152q94 -31 159 -31z" />
    <glyph glyph-name="uni00B9" unicode="&#xb9;" horiz-adv-x="897" 
d="M141 825h207v521l-225 -52v160l229 49h226v-678h204v-157h-641v157z" />
    <glyph glyph-name="ordmasculine" unicode="&#xba;" horiz-adv-x="1155" 
d="M752 1108q0 118 -46 180t-128 62q-84 0 -130 -63t-45 -179q0 -116 46 -178t129 -62q82 0 128 62t46 178zM166 573h823v-200h-823v200zM578 1520q214 0 336 -111q124 -111 124 -301t-124 -300t-336 -110q-213 0 -338 110q-123 110 -123 300t123 301q124 111 338 111z" />
    <glyph glyph-name="guillemotright" unicode="&#xbb;" horiz-adv-x="1323" 
d="M193 1063l491 -371v-186l-491 -369v242l292 221l-292 221v242zM672 1063l493 -371v-186l-493 -369v242l293 221l-293 221v242z" />
    <glyph glyph-name="onequarter" unicode="&#xbc;" horiz-adv-x="2120" 
d="M118 825h207v521l-225 -52v160l229 49h226v-678h204v-157h-641v157zM734 -29h-224l934 1549h224zM1823 835v-518h137v-155h-137v-162h-230v162h-391v168l373 505h248zM1593 317v323l-239 -323h239z" />
    <glyph glyph-name="onehalf" unicode="&#xbd;" horiz-adv-x="2120" 
d="M118 825h207v521l-225 -52v160l229 49h226v-678h204v-157h-641v157zM2017 612q1 -71 -35 -132t-137 -147l-194 -165h370v-168h-673v153l313 266q113 98 113 173q0 50 -36 81q-37 31 -96 31q-122 0 -288 -92v186q173 54 328 54q154 0 245 -64q90 -66 90 -176zM734 -29
h-224l934 1549h224z" />
    <glyph glyph-name="threequarters" unicode="&#xbe;" horiz-adv-x="2120" 
d="M435 1520q163 0 253 -56t90 -161q0 -69 -45 -117t-127 -66q94 -18 144 -73t50 -136q0 -258 -399 -258q-160 0 -297 45v174q136 -73 242 -73q211 0 211 124t-221 124h-74v137h84q98 0 143 23t45 75q0 90 -158 90q-108 0 -245 -53v166q140 35 304 35zM734 -29h-224
l934 1549h224zM1823 835v-518h137v-155h-137v-162h-230v162h-391v168l373 505h248zM1593 317v323l-239 -323h239z" />
    <glyph glyph-name="questiondown" unicode="&#xbf;" horiz-adv-x="1188" 
d="M848 1137h-361v356h361v-356zM141 360q0 100 39 177t133 165l64 58q69 62 89 99q21 37 21 83v45h361v-49q0 -80 -32 -144t-142 -163l-64 -58q-108 -99 -108 -179q0 -161 175 -161t378 134v-314q-231 -82 -414 -82q-245 0 -373 100t-127 289z" />
    <glyph glyph-name="Agrave" unicode="&#xc0;" horiz-adv-x="1585" 
d="M588 549h409l-204 594zM1094 272h-602l-95 -272h-387l553 1493h459l553 -1493h-387zM717 1899l198 -264h-196l-285 264h283z" />
    <glyph glyph-name="Aacute" unicode="&#xc1;" horiz-adv-x="1585" 
d="M588 549h409l-204 594zM1094 272h-602l-95 -272h-387l553 1493h459l553 -1493h-387zM819 1899h283l-285 -264h-196z" />
    <glyph glyph-name="Acircumflex" unicode="&#xc2;" horiz-adv-x="1585" 
d="M588 549h409l-204 594zM1094 272h-602l-95 -272h-387l553 1493h459l553 -1493h-387zM638 1899h308l223 -264h-178l-199 161l-199 -161h-178z" />
    <glyph glyph-name="Atilde" unicode="&#xc3;" horiz-adv-x="1585" 
d="M588 549h409l-204 594zM1094 272h-602l-95 -272h-387l553 1493h459l553 -1493h-387zM1085 1705q-53 -64 -134 -64t-157 49l-56 35q0 -1 -2 1t-28 16t-56 15q-30 -1 -50 -31t-19 -79v-6h-139l2 30q0 107 54 171t131 65q78 0 159 -49l59 -39q44 -29 76 -29q76 0 76 117h139
l-2 -31q0 -107 -53 -171z" />
    <glyph glyph-name="Adieresis" unicode="&#xc4;" horiz-adv-x="1585" 
d="M588 549h409l-204 594zM1094 272h-602l-95 -272h-387l553 1493h459l553 -1493h-387zM866 1899h235v-246h-235v246zM471 1899h235v-246h-235v246z" />
    <glyph glyph-name="Aring" unicode="&#xc5;" horiz-adv-x="1585" 
d="M588 549h409l-204 594zM662 1616q0 -54 38 -92t93 -39q55 1 93 39t38 92t-39 92t-93 39q-54 -1 -92 -39t-38 -92zM553 1464q-45 68 -45 169q0 100 83 184t201 84t201 -84q84 -84 84 -190t-45 -163l543 -1464h-387l-94 272h-602l-95 -272h-387z" />
    <glyph glyph-name="AE" unicode="&#xc6;" horiz-adv-x="2222" 
d="M2050 1493v-291h-653v-278h614v-291h-614v-342h676v-291h-1061v350h-494l-147 -350h-371l625 1493h1425zM1012 627v610h-121l-256 -610h377z" />
    <glyph glyph-name="Ccedilla" unicode="&#xc7;" horiz-adv-x="1503" 
d="M1086 -220q0 -181 -250 -181q-104 0 -202 26l-1 152q95 -31 159 -31q66 0 98 23t32 56q0 52 -68 147q-335 15 -534 208q-218 206 -218 564t218 568q219 208 591 208q247 0 461 -111v-309q-205 141 -420 141q-216 1 -334 -131t-118 -364t118 -364t334 -132t420 141v-309
q-178 -92 -376 -108q90 -105 90 -194z" />
    <glyph glyph-name="Egrave" unicode="&#xc8;" horiz-adv-x="1399" 
d="M188 1493h1039v-291h-654v-278h615v-291h-615v-342h676v-291h-1061v1493zM641 1899l198 -264h-196l-285 264h283z" />
    <glyph glyph-name="Eacute" unicode="&#xc9;" horiz-adv-x="1399" 
d="M188 1493h1039v-291h-654v-278h615v-291h-615v-342h676v-291h-1061v1493zM743 1899h283l-285 -264h-196z" />
    <glyph glyph-name="Ecircumflex" unicode="&#xca;" horiz-adv-x="1399" 
d="M188 1493h1039v-291h-654v-278h615v-291h-615v-342h676v-291h-1061v1493zM538 1899h308l223 -264h-178l-199 161l-199 -161h-178z" />
    <glyph glyph-name="Edieresis" unicode="&#xcb;" horiz-adv-x="1399" 
d="M188 1493h1039v-291h-654v-278h615v-291h-615v-342h676v-291h-1061v1493zM772 1899h235v-246h-235v246zM377 1899h235v-246h-235v246z" />
    <glyph glyph-name="Igrave" unicode="&#xcc;" horiz-adv-x="762" 
d="M188 1493h385v-1493h-385v1493zM305 1899l198 -264h-196l-285 264h283z" />
    <glyph glyph-name="Iacute" unicode="&#xcd;" horiz-adv-x="762" 
d="M188 1493h385v-1493h-385v1493zM407 1899h283l-285 -264h-196z" />
    <glyph glyph-name="Icircumflex" unicode="&#xce;" horiz-adv-x="762" 
d="M188 1493h385v-1493h-385v1493zM226 1899h308l223 -264h-178l-199 161l-199 -161h-178z" />
    <glyph glyph-name="Idieresis" unicode="&#xcf;" horiz-adv-x="762" 
d="M188 1493h385v-1493h-385v1493zM460 1899h235v-246h-235v246zM65 1899h235v-246h-235v246z" />
    <glyph glyph-name="Eth" unicode="&#xd0;" horiz-adv-x="1716" 
d="M207 1493h405q342 -1 507 -49t277 -156t164 -240t52 -301q0 -333 -207 -534q-121 -117 -289 -165t-504 -48h-405v621h-174v260h174v612zM592 1202v-321h235v-260h-235v-330h137q235 0 361 117q124 118 124 340t-124 338t-361 116h-137z" />
    <glyph glyph-name="Ntilde" unicode="&#xd1;" horiz-adv-x="1714" 
d="M188 1493h430l543 -1024v1024h365v-1493h-430l-543 1024v-1024h-365v1493zM1114 1700q-53 -64 -134 -65q-81 0 -157 49l-66 41q-45 26 -75 26q-30 -1 -50 -31t-20 -79v-6h-139l2 30q0 106 53 171q54 65 132 65t159 -49l59 -39q45 -29 76 -29q76 0 76 117h139l-2 -31
q0 -106 -53 -170z" />
    <glyph glyph-name="Ograve" unicode="&#xd2;" horiz-adv-x="1741" 
d="M871 1520q359 0 563 -206t204 -568q0 -364 -204 -570t-563 -205q-359 -1 -564 205t-205 569t204 569q206 206 565 206zM870 1241q-176 0 -273 -130q-97 -129 -97 -365t97 -366t273 -130t274 130q97 130 97 366t-97 365q-98 130 -274 130zM795 1899l198 -264h-196
l-285 264h283z" />
    <glyph glyph-name="Oacute" unicode="&#xd3;" horiz-adv-x="1741" 
d="M871 1520q359 0 563 -206t204 -568q0 -364 -204 -570t-563 -205q-359 -1 -564 205t-205 569t204 569q206 206 565 206zM870 1241q-176 0 -273 -130q-97 -129 -97 -365t97 -366t273 -130t274 130q97 130 97 366t-97 365q-98 130 -274 130zM897 1899h283l-285 -264h-196z
" />
    <glyph glyph-name="Ocircumflex" unicode="&#xd4;" horiz-adv-x="1741" 
d="M871 1520q359 0 563 -206t204 -568q0 -364 -204 -570t-563 -205q-359 -1 -564 205t-205 569t204 569q206 206 565 206zM870 1241q-176 0 -273 -130q-97 -129 -97 -365t97 -366t273 -130t274 130q97 130 97 366t-97 365q-98 130 -274 130zM692 1899h308l223 -264h-178
l-199 161l-199 -161h-178z" />
    <glyph glyph-name="Otilde" unicode="&#xd5;" horiz-adv-x="1741" 
d="M871 1520q359 0 563 -206t204 -568q0 -364 -204 -570t-563 -205q-359 -1 -564 205t-205 569t204 569q206 206 565 206zM870 1241q-176 0 -273 -130q-97 -129 -97 -365t97 -366t273 -130t274 130q97 130 97 366t-97 365q-98 130 -274 130zM1164 1700q-53 -64 -134 -65
q-81 0 -157 49l-66 41q-45 26 -75 26q-30 -1 -50 -31t-20 -79v-6h-139l2 30q0 106 53 171q54 65 132 65t159 -49l59 -39q45 -29 76 -29q76 0 76 117h139l-2 -31q0 -106 -53 -170z" />
    <glyph glyph-name="Odieresis" unicode="&#xd6;" horiz-adv-x="1741" 
d="M871 1520q359 0 563 -206t204 -568q0 -364 -204 -570t-563 -205q-359 -1 -564 205t-205 569t204 569q206 206 565 206zM870 1241q-176 0 -273 -130q-97 -129 -97 -365t97 -366t273 -130t274 130q97 130 97 366t-97 365q-98 130 -274 130zM950 1899h235v-246h-235v246z
M555 1899h235v-246h-235v246z" />
    <glyph glyph-name="multiply" unicode="&#xd7;" horiz-adv-x="1716" 
d="M1460 1075l-434 -434l434 -432l-168 -168l-434 432l-434 -432l-168 168l434 432l-434 434l168 168l434 -434l434 434z" />
    <glyph glyph-name="Oslash" unicode="&#xd8;" horiz-adv-x="1741" 
d="M102 745q0 363 204 569q206 206 564 206q300 0 504 -152l199 199l113 -115l-201 -199q153 -198 153 -508q0 -363 -204 -569t-564 -205q-305 0 -510 158l-202 -203l-113 113l205 205q-148 200 -148 501zM500 745q0 -131 28 -223l605 604q-99 115 -269 115t-267 -130
t-97 -366zM1241 745q0 57 -7 127q-11 66 -24 107l-606 -608q104 -121 273 -121q170 0 267 130t97 365z" />
    <glyph glyph-name="Ugrave" unicode="&#xd9;" horiz-adv-x="1663" 
d="M188 1493h385v-895q0 -187 61 -264q59 -80 197 -80q139 0 199 79t60 265v895h385v-895q1 -318 -159 -472t-484 -155q-324 1 -484 155t-160 472v895zM756 1899l198 -264h-196l-285 264h283z" />
    <glyph glyph-name="Uacute" unicode="&#xda;" horiz-adv-x="1663" 
d="M188 1493h385v-895q0 -187 61 -264q59 -80 197 -80q139 0 199 79t60 265v895h385v-895q1 -318 -159 -472t-484 -155q-324 1 -484 155t-160 472v895zM858 1899h283l-285 -264h-196z" />
    <glyph glyph-name="Ucircumflex" unicode="&#xdb;" horiz-adv-x="1663" 
d="M188 1493h385v-895q0 -187 61 -264q59 -80 197 -80q139 0 199 79t60 265v895h385v-895q1 -318 -159 -472t-484 -155q-324 1 -484 155t-160 472v895zM678 1899h308l223 -264h-178l-199 161l-199 -161h-178z" />
    <glyph glyph-name="Udieresis" unicode="&#xdc;" horiz-adv-x="1663" 
d="M188 1493h385v-895q0 -187 61 -264q59 -80 197 -80q139 0 199 79t60 265v895h385v-895q1 -318 -159 -472t-484 -155q-324 1 -484 155t-160 472v895zM912 1899h235v-246h-235v246zM517 1899h235v-246h-235v246z" />
    <glyph glyph-name="Yacute" unicode="&#xdd;" horiz-adv-x="1483" 
d="M934 0h-385v629l-569 864h421l340 -532l340 532h422l-569 -864v-629zM768 1899h283l-285 -264h-196z" />
    <glyph glyph-name="Thorn" unicode="&#xde;" horiz-adv-x="1511" 
d="M573 956v-419h213q112 1 173 55t61 154t-61 155t-173 55h-213zM573 258v-258h-385v1493h385v-260h254q286 -1 438 -127t152 -360q-1 -234 -153 -361t-437 -127h-254z" />
    <glyph glyph-name="germandbls" unicode="&#xdf;" horiz-adv-x="1473" 
d="M637 833q0 215 284 312q-4 174 -188 174q-203 0 -203 -219v-1100h-358v1114q0 442 543 442q263 0 397 -112t133 -330v-71q-151 -11 -223 -49t-72 -113q0 -37 24 -65t118 -81l69 -37q119 -66 171 -150t52 -200q0 -377 -460 -377q-128 0 -277 49v244q112 -55 204 -55
q93 0 137 36t44 88t-26 85t-127 90l-70 39q-89 51 -131 117t-41 169z" />
    <glyph glyph-name="agrave" unicode="&#xe0;" horiz-adv-x="1382" 
d="M649 1147q303 1 437 -119t135 -389v-639h-361v166q-74 -104 -162 -150t-219 -45q-173 0 -283 101q-108 102 -108 264q0 198 136 290t425 91h211v28q0 85 -67 125q-68 39 -209 39q-230 0 -398 -92v273q236 57 463 57zM674 504q-225 0 -225 -150q-1 -68 45 -106t137 -39
q91 1 160 73t69 181v41h-186zM563 1638l282 -376h-196l-369 376h283z" />
    <glyph glyph-name="aacute" unicode="&#xe1;" horiz-adv-x="1382" 
d="M649 1147q303 1 437 -119t135 -389v-639h-361v166q-74 -104 -162 -150t-219 -45q-173 0 -283 101q-108 102 -108 264q0 198 136 290t425 91h211v28q0 85 -67 125q-68 39 -209 39q-230 0 -398 -92v273q236 57 463 57zM674 504q-225 0 -225 -150q-1 -68 45 -106t137 -39
q91 1 160 73t69 181v41h-186zM833 1638h283l-369 -376h-196z" />
    <glyph glyph-name="acircumflex" unicode="&#xe2;" horiz-adv-x="1382" 
d="M649 1147q303 1 437 -119t135 -389v-639h-361v166q-74 -104 -162 -150t-219 -45q-173 0 -283 101q-108 102 -108 264q0 198 136 290t425 91h211v28q0 85 -67 125q-68 39 -209 39q-230 0 -398 -92v273q236 57 463 57zM674 504q-225 0 -225 -150q-1 -68 45 -106t137 -39
q91 1 160 73t69 181v41h-186zM577 1638h242l256 -376h-178l-199 225l-199 -225h-178z" />
    <glyph glyph-name="atilde" unicode="&#xe3;" horiz-adv-x="1382" 
d="M649 1147q303 1 437 -119t135 -389v-639h-361v166q-74 -104 -162 -150t-219 -45q-173 0 -283 101q-108 102 -108 264q0 198 136 290t425 91h211v28q0 85 -67 125q-68 39 -209 39q-230 0 -398 -92v273q236 57 463 57zM674 504q-225 0 -225 -150q-1 -68 45 -106t137 -39
q91 1 160 73t69 181v41h-186zM563 1438q-74 0 -74 -121v-8h-139q0 137 52 211t144 73q73 0 150 -57l61 -43q47 -31 79 -31q31 0 51 32t20 89v8h139q0 -137 -52 -211t-133 -73q-82 0 -161 57l-55 37q-4 1 -30 19t-52 18z" />
    <glyph glyph-name="adieresis" unicode="&#xe4;" horiz-adv-x="1382" 
d="M649 1147q303 1 437 -119t135 -389v-639h-361v166q-74 -104 -162 -150t-219 -45q-173 0 -283 101q-108 102 -108 264q0 198 136 290t425 91h211v28q0 85 -67 125q-68 39 -209 39q-230 0 -398 -92v273q236 57 463 57zM674 504q-225 0 -225 -150q-1 -68 45 -106t137 -39
q91 1 160 73t69 181v41h-186zM778 1585h235v-246h-235v246zM383 1585h235v-246h-235v246z" />
    <glyph glyph-name="aring" unicode="&#xe5;" horiz-adv-x="1382" 
d="M649 1147q303 1 437 -119t135 -389v-639h-361v166q-74 -104 -162 -150t-219 -45q-173 0 -283 101q-108 102 -108 264q0 198 136 290t425 91h211v28q0 85 -67 125q-68 39 -209 39q-230 0 -398 -92v273q236 57 463 57zM674 504q-225 0 -225 -150q-1 -68 45 -106t137 -39
q91 1 160 73t69 181v41h-186zM413 1534q0 117 83 202q85 83 202 83t202 -83q83 -85 83 -202t-83 -202q-85 -83 -202 -83t-202 83q-83 85 -83 202zM829 1534q-1 54 -39 92t-93 39q-55 -1 -93 -39t-37 -93t39 -93t93 -37t93 39t37 92z" />
    <glyph glyph-name="ae" unicode="&#xe6;" horiz-adv-x="2146" 
d="M625 1147q300 0 438 -156q156 156 412 156t415 -159q158 -160 158 -425v-102h-838q26 -252 310 -252q227 0 475 135v-276q-255 -97 -508 -97q-367 0 -516 207q-196 -207 -463 -207q-194 1 -307 99t-113 281t136 275t425 91h211v28q0 85 -67 125q-68 39 -209 39
q-230 0 -398 -92v273q240 57 439 57zM674 504q-225 0 -225 -150q-1 -68 45 -106t137 -39q91 1 160 73t69 181v41h-186zM1679 682q1 102 -59 164t-160 63t-163 -57t-80 -170h462z" />
    <glyph glyph-name="ccedilla" unicode="&#xe7;" horiz-adv-x="1214" 
d="M899 -220q0 -181 -250 -181q-104 0 -202 26l-1 152q95 -31 159 -31q65 0 97 23t33 56q0 52 -68 148q-255 15 -417 162t-162 424t171 433q172 155 474 155q177 0 344 -62v-292q-146 98 -298 98q-151 0 -235 -87q-83 -89 -83 -245t83 -245q84 -87 244 -87t289 99v-293
q-133 -49 -267 -59q89 -105 89 -194z" />
    <glyph glyph-name="egrave" unicode="&#xe8;" horiz-adv-x="1389" 
d="M922 682q0 102 -59 164t-161 63q-102 0 -164 -58q-64 -58 -81 -169h465zM729 -29q-305 0 -473 154t-168 431t165 434t443 157t436 -159q158 -160 158 -425v-102h-837q28 -252 309 -252q227 0 475 135v-276q-261 -97 -508 -97zM594 1638l282 -376h-196l-369 376h283z" />
    <glyph glyph-name="eacute" unicode="&#xe9;" horiz-adv-x="1389" 
d="M922 682q0 102 -59 164t-161 63q-102 0 -164 -58q-64 -58 -81 -169h465zM729 -29q-305 0 -473 154t-168 431t165 434t443 157t436 -159q158 -160 158 -425v-102h-837q28 -252 309 -252q227 0 475 135v-276q-261 -97 -508 -97zM864 1638h283l-369 -376h-196z" />
    <glyph glyph-name="ecircumflex" unicode="&#xea;" horiz-adv-x="1389" 
d="M922 682q0 102 -59 164t-161 63q-102 0 -164 -58q-64 -58 -81 -169h465zM729 -29q-305 0 -473 154t-168 431t165 434t443 157t436 -159q158 -160 158 -425v-102h-837q28 -252 309 -252q227 0 475 135v-276q-261 -97 -508 -97zM608 1638h242l256 -376h-178l-199 225
l-199 -225h-178z" />
    <glyph glyph-name="edieresis" unicode="&#xeb;" horiz-adv-x="1389" 
d="M922 682q0 102 -59 164t-161 63q-102 0 -164 -58q-64 -58 -81 -169h465zM729 -29q-305 0 -473 154t-168 431t165 434t443 157t436 -159q158 -160 158 -425v-102h-837q28 -252 309 -252q227 0 475 135v-276q-261 -97 -508 -97zM809 1585h235v-246h-235v246zM414 1585h235
v-246h-235v246z" />
    <glyph glyph-name="igrave" unicode="&#xec;" horiz-adv-x="702" 
d="M240 1638l282 -376h-196l-369 376h283zM172 1120h358v-1120h-358v1120z" />
    <glyph glyph-name="iacute" unicode="&#xed;" horiz-adv-x="702" 
d="M510 1638h283l-369 -376h-196zM172 1120h358v-1120h-358v1120z" />
    <glyph glyph-name="icircumflex" unicode="&#xee;" horiz-adv-x="702" 
d="M172 1120h358v-1120h-358v1120zM229 1638h242l256 -376h-178l-199 225l-199 -225h-178z" />
    <glyph glyph-name="idieresis" unicode="&#xef;" horiz-adv-x="702" 
d="M430 1585h235v-246h-235v246zM35 1585h235v-246h-235v246zM172 1120h358v-1120h-358v1120z" />
    <glyph glyph-name="eth" unicode="&#xf0;" horiz-adv-x="1407" 
d="M1319 559q-1 -276 -163 -432t-452 -156q-290 -1 -453 155t-163 433q0 231 150 363t415 133q87 0 160 -27l-190 219l-373 -119l-37 129l307 97l-188 202h352l111 -116l376 114l35 -129l-315 -96l205 -229q118 -138 170 -266t53 -275zM524 730q-64 -66 -63 -200t65 -218
t180 -85q116 1 178 87t62 245q0 92 -26 184q-110 54 -221 54q-111 -1 -175 -67z" />
    <glyph glyph-name="ntilde" unicode="&#xf1;" horiz-adv-x="1458" 
d="M892 1147q406 0 406 -465v-682h-360v522q0 144 -7 200t-25 86q-18 29 -55 49t-81 20q-112 0 -176 -86t-64 -240v-551h-358v1120h358v-164q158 191 362 191zM619 1438q-74 0 -74 -121v-8h-139q0 137 52 211t144 73q73 0 150 -57l61 -43q47 -31 79 -31q31 0 51 32t20 89v8
h139q0 -137 -52 -211t-133 -73q-82 0 -161 57l-55 37q-4 1 -30 19t-52 18z" />
    <glyph glyph-name="ograve" unicode="&#xf2;" horiz-adv-x="1407" 
d="M88 559q0 277 163 433t453 155q290 0 452 -156t163 -432q-1 -276 -163 -432t-452 -156q-290 -1 -453 155t-163 433zM946 559q0 159 -62 245t-180 87q-118 0 -180 -86t-63 -246q1 -160 63 -246t180 -86q118 1 180 87t62 245zM592 1638l282 -376h-196l-369 376h283z" />
    <glyph glyph-name="oacute" unicode="&#xf3;" horiz-adv-x="1407" 
d="M88 559q0 277 163 433t453 155q290 0 452 -156t163 -432q-1 -276 -163 -432t-452 -156q-290 -1 -453 155t-163 433zM946 559q0 159 -62 245t-180 87q-118 0 -180 -86t-63 -246q1 -160 63 -246t180 -86q118 1 180 87t62 245zM862 1638h283l-369 -376h-196z" />
    <glyph glyph-name="ocircumflex" unicode="&#xf4;" horiz-adv-x="1407" 
d="M88 559q0 277 163 433t453 155q290 0 452 -156t163 -432q-1 -276 -163 -432t-452 -156q-290 -1 -453 155t-163 433zM946 559q0 159 -62 245t-180 87q-118 0 -180 -86t-63 -246q1 -160 63 -246t180 -86q118 1 180 87t62 245zM582 1638h242l256 -376h-178l-199 225
l-199 -225h-178z" />
    <glyph glyph-name="otilde" unicode="&#xf5;" horiz-adv-x="1407" 
d="M88 559q0 277 163 433t453 155q290 0 452 -156t163 -432q-1 -276 -163 -432t-452 -156q-290 -1 -453 155t-163 433zM946 559q0 159 -62 245t-180 87q-118 0 -180 -86t-63 -246q1 -160 63 -246t180 -86q118 1 180 87t62 245zM567 1438q-74 0 -74 -121v-8h-139
q0 137 52 211t144 73q73 0 150 -57l61 -43q47 -31 79 -31q31 0 51 32t20 89v8h139q0 -137 -52 -211t-133 -73q-82 0 -161 57l-55 37q-4 1 -30 19t-52 18z" />
    <glyph glyph-name="odieresis" unicode="&#xf6;" horiz-adv-x="1407" 
d="M88 559q0 277 163 433t453 155q290 0 452 -156t163 -432q-1 -276 -163 -432t-452 -156q-290 -1 -453 155t-163 433zM946 559q0 159 -62 245t-180 87q-118 0 -180 -86t-63 -246q1 -160 63 -246t180 -86q118 1 180 87t62 245zM782 1585h235v-246h-235v246zM387 1585h235
v-246h-235v246z" />
    <glyph glyph-name="divide" unicode="&#xf7;" horiz-adv-x="1716" 
d="M217 760h1282v-236h-1282v236zM705 1198h307v-309h-307v309zM705 395h307v-309h-307v309z" />
    <glyph glyph-name="oslash" unicode="&#xf8;" horiz-adv-x="1407" 
d="M88 575q0 261 163 417t454 155q207 0 360 -88l147 158l109 -101l-141 -149q139 -157 139 -420q-1 -264 -163 -420t-451 -156q-216 0 -367 90l-148 -155l-112 94l145 158q-135 156 -135 417zM946 559q0 89 -14 139l-385 -411q62 -60 168 -60q107 1 169 87t62 245zM694 891
q-108 0 -170 -86t-63 -246q0 -86 14 -133l381 410q-54 55 -162 55z" />
    <glyph glyph-name="ugrave" unicode="&#xf9;" horiz-adv-x="1458" 
d="M160 436v684h360v-112l-2 -412q0 -232 27 -274q51 -80 153 -80t166 86t64 239v553h358v-1120h-358v162q-159 -191 -362 -191q-406 0 -406 465zM619 1638l282 -376h-196l-369 376h283z" />
    <glyph glyph-name="uacute" unicode="&#xfa;" horiz-adv-x="1458" 
d="M160 436v684h360v-112l-2 -412q0 -232 27 -274q51 -80 153 -80t166 86t64 239v553h358v-1120h-358v162q-159 -191 -362 -191q-406 0 -406 465zM889 1638h283l-369 -376h-196z" />
    <glyph glyph-name="ucircumflex" unicode="&#xfb;" horiz-adv-x="1458" 
d="M160 436v684h360v-112l-2 -412q0 -232 27 -274q51 -80 153 -80t166 86t64 239v553h358v-1120h-358v162q-159 -191 -362 -191q-406 0 -406 465zM603 1638h242l256 -376h-178l-199 225l-199 -225h-178z" />
    <glyph glyph-name="udieresis" unicode="&#xfc;" horiz-adv-x="1458" 
d="M160 436v684h360v-112l-2 -412q0 -232 27 -274q51 -80 153 -80t166 86t64 239v553h358v-1120h-358v162q-159 -191 -362 -191q-406 0 -406 465zM804 1585h235v-246h-235v246zM409 1585h235v-246h-235v246z" />
    <glyph glyph-name="yacute" unicode="&#xfd;" horiz-adv-x="1335" 
d="M412 -442h-207v235h112q90 0 133 29q42 29 64 104l10 31l-499 1163h358l301 -760l256 760h358l-471 -1226q-70 -185 -165 -262q-97 -74 -250 -74zM803 1638h283l-369 -376h-196z" />
    <glyph glyph-name="thorn" unicode="&#xfe;" horiz-adv-x="1466" 
d="M767 887q-115 0 -176 -84t-61 -244t61 -244t176 -84t177 84q60 84 60 244t-60 244q-62 84 -177 84zM1374 559q0 -260 -133 -424t-350 -164t-361 191v-588h-358v1982h358v-600q143 191 361 191q217 0 350 -164t133 -424z" />
    <glyph glyph-name="ydieresis" unicode="&#xff;" horiz-adv-x="1335" 
d="M412 -442h-207v235h112q90 0 133 29q42 29 64 104l10 31l-499 1163h358l301 -760l256 760h358l-471 -1226q-70 -185 -165 -262q-97 -74 -250 -74zM748 1585h235v-246h-235v246zM353 1585h235v-246h-235v246z" />
    <glyph glyph-name="uni10D0" unicode="&#x10d0;" horiz-adv-x="1254" 
d="M1154 527q0 -556 -518 -556q-536 0 -536 561v132l64 292h339l-76 -325v-174q0 -245 209 -245q200 0 200 255v242q0 221 -232 435t-232 534h319q1 -238 231 -482t232 -520v-149z" />
    <glyph glyph-name="uni10D1" unicode="&#x10d1;" horiz-adv-x="1254" 
d="M1154 588q0 -618 -527 -618t-527 618v56q0 470 405 555q5 116 -51 149q-160 97 -162 338h343q0 -141 71 -192q108 -78 108 -233l-5 -72q344 -96 345 -550v-51zM836 672q0 299 -208 299q-200 -6 -201 -318v-79q0 -363 200 -363q209 0 209 358v103z" />
    <glyph glyph-name="uni10D2" unicode="&#x10d2;" horiz-adv-x="1337" 
d="M1237 651v-82q-1 -598 -569 -598t-568 584v112q0 477 555 559h49q50 63 49 129q2 99 -112 99q-105 0 -105 -134h-293q0 376 398 376t396 -346q-7 -109 -60 -193q260 -141 260 -506zM911 643q0 346 -233 346q-251 0 -251 -340v-89q0 -348 247 -348q237 0 237 348v83z" />
    <glyph glyph-name="uni10D3" unicode="&#x10d3;" horiz-adv-x="1847" 
d="M413 349q-313 353 -313 728v102q0 517 487 517q160 0 299 -118q105 109 344 109q517 0 517 -526v-139q0 -564 -517 -597q-505 31 -505 597v111q0 114 34 216q-63 104 -163 104q-169 0 -169 -264v-93q-1 -210 107 -436t373 -296q543 -81 544 -364h-401q-17 151 -293 152
q-206 -2 -367 -146l-150 247q84 63 173 96zM1419 1119q0 326 -189 326q-180 0 -182 -284v-144q-2 -347 182 -347q189 0 189 319v130z" />
    <glyph glyph-name="uni10D4" unicode="&#x10d4;" horiz-adv-x="1274" 
d="M846 1326q0 128 -191 128q-150 0 -152 -170l34 -260h-332l-16 258q1 414 483 414t482 -395v-828q0 -503 -528 -503t-525 510l37 276h349l-61 -332q0 -212 201 -212q221 -2 219 218v896z" />
    <glyph glyph-name="uni10D5" unicode="&#x10d5;" horiz-adv-x="1274" 
d="M1154 593v-117q0 -506 -527 -506t-527 532l27 244h335l-36 -309q0 -225 201 -225q209 0 209 218v158q0 182 -113 182h-133v252h92q108 2 107 296q1 136 -163 136t-167 -160l26 -182h-329l-9 162q0 422 485 422t485 -428q-1 -217 -219 -337q256 -70 256 -338z" />
    <glyph glyph-name="uni10D6" unicode="&#x10d6;" horiz-adv-x="1353" 
d="M1253 635v-70q0 -595 -555 -595t-555 604v65q0 131 87 301q-170 149 -170 338q0 418 438 418q450 0 450 -482l-7 -69q312 -145 312 -510zM922 632q0 320 -216 320q-236 0 -236 -322v-70q0 -348 231 -348q221 0 221 340v80zM509 1454q-122 0 -122 -162q0 -104 35 -174
q81 46 206 61l3 34q0 241 -122 241z" />
    <glyph glyph-name="uni10D7" unicode="&#x10d7;" horiz-adv-x="1832" 
d="M951 1549q118 137 343 137q436 0 438 -546v-436q-9 -420 -230 -704h-386q108 136 192 316t95 391v503q0 236 -151 236q-144 -2 -144 -154v-732q0 -589 -511 -589q-497 0 -497 589v580q0 556 507 556q205 1 344 -147zM783 1210q0 244 -176 244q-183 0 -183 -244v-720
q0 -278 183 -278q176 0 176 278v720z" />
    <glyph glyph-name="uni10D8" unicode="&#x10d8;" horiz-adv-x="1207" 
d="M427 760q0 -398 146 -760h-343q-130 391 -130 760v383q0 553 526 553q481 0 481 -553v-383q0 -357 -121 -760h-341q136 351 136 760v453q0 241 -155 241q-199 0 -199 -241v-453z" />
    <glyph glyph-name="uni10D9" unicode="&#x10d9;" horiz-adv-x="1274" 
d="M836 1320q0 127 -250 359h453q115 -217 115 -326q0 -228 -193 -343q193 -126 193 -422v-117q-2 -499 -528 -499t-526 513l17 270h334l-25 -333q0 -208 201 -210q209 0 209 199v172q0 249 -121 249h-161v250h94q188 -2 188 238z" />
    <glyph glyph-name="uni10DA" unicode="&#x10da;" horiz-adv-x="2381" 
d="M993 259q-211 0 -480 -272l-200 216q83 110 218 176q-389 242 -431 684v119q0 505 485 505q167 0 316 -135q109 144 293 144t295 -144q121 135 315 135q477 0 477 -495v-96q0 -180 -231 -606h-350q267 458 267 638v59q1 258 -163 258t-163 -168v-391h-310v391
q0 191 -136 191q-131 0 -131 -191v-391h-311v391q-1 168 -169 168q-157 0 -157 -260v-108q43 -394 391 -589q127 7 236 6q537 -35 856 -494h-462q-40 169 -164 214t-291 45z" />
    <glyph glyph-name="uni10DB" unicode="&#x10db;" horiz-adv-x="1282" 
d="M1152 499q0 -528 -506 -528q-546 0 -546 528v163q0 525 524 527q58 0 222 -33v112q0 185 -188 186t-191 -146h-315q0 387 488 387q512 0 512 -431v-765zM427 681v-172q0 -297 219 -297q199 0 199 278v407q-134 33 -198 35q-220 0 -220 -251z" />
    <glyph glyph-name="uni10DC" unicode="&#x10dc;" horiz-adv-x="1284" 
d="M1184 475q0 -505 -527 -505t-527 505v796q0 408 390 408h556v-243h-552q-86 0 -86 -168v-98q163 38 214 38q532 0 532 -499v-234zM866 685q0 267 -216 267q-106 0 -202 -44v-423q0 -274 214 -274q204 0 204 260v214z" />
    <glyph glyph-name="uni10DD" unicode="&#x10dd;" horiz-adv-x="1828" 
d="M1718 707q0 -397 -280 -707h-377q333 400 333 708v512q0 235 -178 235q-139 0 -139 -158v-723h-321v731q0 150 -173 150q-145 0 -145 -235v-512q0 -314 297 -708h-365q-260 311 -260 708v432q0 556 492 556q200 0 321 -148q121 148 293 148q502 0 502 -556v-433z" />
    <glyph glyph-name="uni10DE" unicode="&#x10de;" horiz-adv-x="1254" 
d="M1154 452q0 -483 -508 -483q-546 0 -546 502l13 210h329l-15 -216q0 -253 214 -253q195 0 195 254v63q2 173 -102 175h-176v263h79q179 0 181 177q0 124 -196 196q-196 75 -196 338h355q-1 -160 177 -286t178 -240q0 -196 -230 -300q248 -77 248 -365v-35z" />
    <glyph glyph-name="uni10DF" unicode="&#x10df;" horiz-adv-x="1283" 
d="M1153 481q0 -512 -531 -512q-522 0 -522 594h327q0 -351 195 -351q212 0 212 269v959l-298 -28q220 -123 220 -277q0 -408 -655 -407v260q351 -2 349 144q2 133 -349 221v227l1052 141v-1240z" />
    <glyph glyph-name="uni10E0" unicode="&#x10e0;" horiz-adv-x="1893" 
d="M1793 677q0 -404 -299 -677h-397q361 388 361 685v191q0 204 -169 205q-175 0 -176 -171v-434h-329v434q0 170 -189 170q-168 0 -168 -204v-199q0 -285 376 -677h-395q-308 272 -308 677v111q0 404 282 662q275 246 1052 246v-242q-721 1 -890 -192q298 78 409 -94
q129 152 319 152q519 0 521 -527v-116z" />
    <glyph glyph-name="uni10E1" unicode="&#x10e1;" horiz-adv-x="1284" 
d="M1184 490q0 -519 -534 -519q-520 0 -520 603v1104h318v-1201q0 -265 204 -265q214 0 214 204v130q0 158 -118 279t-120 306l51 250h343l-85 -264q-1 -133 123 -239t124 -346v-42z" />
    <glyph glyph-name="uni10E2" unicode="&#x10e2;" horiz-adv-x="1524" 
d="M769 -29q-361 1 -520 239t-159 447v308q2 177 97 370t452 291l-27 70h288l-17 -70q307 -103 429 -296t120 -364v-309q2 -203 -150 -445t-513 -241zM1104 662v299q0 162 -53 263t-201 164l51 -735h-307l60 741q-166 -72 -201 -170t-36 -260v-302q-2 -144 89 -298
q92 -154 260 -153t253 156t85 295z" />
    <glyph glyph-name="uni10E3" unicode="&#x10e3;" horiz-adv-x="1298" 
d="M663 -29q-546 0 -550 508l40 296h342l-54 -345q0 -218 227 -218q191 0 191 195v936q-1 111 -80 111q-108 0 -107 -121v-338h-298v356q-1 103 -101 103h-203v242h206q147 0 223 -154q100 154 248 154q420 0 420 -399v-788q1 -538 -504 -538z" />
    <glyph glyph-name="uni10E4" unicode="&#x10e4;" horiz-adv-x="1815" 
d="M100 1026v130q0 540 497 540q224 0 344 -127q124 121 300 121q473 0 473 -440q1 -232 -234 -407q214 -99 215 -355q-2 -212 -170 -364t-467 -153h-93q-221 0 -400 117q-178 118 -178 281h340q0 -63 79 -111q81 -46 171 -46h69q150 0 238 80t89 195q0 194 -43 194h-157
v234h66q153 63 153 299t-173 235q-71 0 -149 -80q33 -106 29 -237v-106q0 -564 -486 -562q-513 -2 -513 562zM781 1262q0 192 -181 192q-173 0 -173 -188v-350q0 -208 186 -208q168 0 168 208v346z" />
    <glyph glyph-name="uni10E5" unicode="&#x10e5;" horiz-adv-x="1283" 
d="M1153 475q-1 -503 -527 -503t-526 507l31 249h346l-50 -256q2 -260 195 -260q224 0 224 268v508q-179 365 -289 366q-106 -3 -109 -109l34 -250h-319l-26 236q0 378 416 376q145 0 293 -180v251h307v-1203z" />
    <glyph glyph-name="uni10E6" unicode="&#x10e6;" horiz-adv-x="1858" 
d="M599 1454q-174 0 -172 -164v-212q-1 -384 344 -662q168 -32 193 -37q445 -120 515 -378h-407q-1 48 -89 100t-215 57q-192 -2 -420 -140l-123 203q93 77 222 131q-347 281 -347 758v70q0 516 499 516q202 0 328 -172q121 172 330 172q252 0 375 -122t125 -373v-90
q1 -222 -185 -607h-376q232 379 232 602v187q0 161 -167 161q-179 0 -179 -215v-455h-309v456q0 214 -174 214z" />
    <glyph glyph-name="uni10E7" unicode="&#x10e7;" horiz-adv-x="1282" 
d="M1152 470q0 -499 -526 -499t-526 459l13 277h331l-18 -274q2 -221 196 -221q224 0 224 229v403q-96 -53 -212 -51q-506 -2 -506 457v37q0 164 92 393h379q-144 -254 -144 -383v-38q0 -227 167 -229q155 0 224 87v563h306v-1210z" />
    <glyph glyph-name="uni10E8" unicode="&#x10e8;" horiz-adv-x="1272" 
d="M1142 494q0 -523 -507 -523q-545 0 -545 538v134q1 526 527 526q57 -2 219 -32v248q0 69 -90 69t-91 -71v-111h-303v111q0 71 -262 71v242q324 0 394 -133q100 133 274 133q384 0 384 -357v-845zM617 912q-199 0 -199 -288v-106q-2 -303 208 -303t210 261v395
q-153 41 -219 41z" />
    <glyph glyph-name="uni10E9" unicode="&#x10e9;" horiz-adv-x="1287" 
d="M867 723q0 211 -201 209q-82 1 -217 -65v-867h-317v1228q-2 468 392 468q433 0 434 -301l-15 -135h-287l11 134q-3 59 -111 59t-107 -101v-207q120 44 232 43q505 0 504 -489v-88q0 -249 -132 -611h-365q179 402 179 560v163z" />
    <glyph glyph-name="uni10EA" unicode="&#x10ea;" horiz-adv-x="1387" 
d="M912 1245q0 97 -103 167t-102 267h321q0 -102 106 -167q107 -63 106 -262q1 -157 -195 -290q242 -111 242 -377q-1 -266 -149 -439q-148 -174 -436 -174t-445 195t-155 504v386q-2 289 61 624h352q-83 -403 -83 -624v-386q-2 -168 62 -313t216 -145q113 -1 181 109
t68 261q-1 189 -108 189h-271v246h140q192 -2 192 229z" />
    <glyph glyph-name="uni10EB" unicode="&#x10eb;" horiz-adv-x="1282" 
d="M1152 509q0 -537 -526 -537t-526 583v69q0 583 527 583q81 1 219 -35v506h306v-1169zM618 952q-191 0 -191 -328v-83q0 -326 191 -326q228 0 228 317v374q-83 46 -228 46z" />
    <glyph glyph-name="uni10EC" unicode="&#x10ec;" horiz-adv-x="1272" 
d="M130 1339q0 357 384 357q174 0 274 -133q70 133 394 133v-242q-262 0 -262 -71v-111h-303v111q-1 71 -91 71t-90 -69v-247q162 30 219 32q525 0 527 -527v-134q0 -538 -545 -538q-507 0 -507 523v845zM436 476q0 -265 210 -265t208 307v106q0 288 -199 288
q-66 0 -219 -41v-395z" />
    <glyph glyph-name="uni10ED" unicode="&#x10ed;" horiz-adv-x="1290" 
d="M1189 1295h-195l40 -213h156v-225h-108l72 -378q0 -508 -527 -508t-527 505l37 192h345l-54 -237q1 -220 195 -220q214 0 214 229l-79 417h-145q-457 0 -457 328q0 337 460 337h3l-35 157h338l31 -157h236v-227zM559 1295q-105 -1 -105 -107t102 -106h165l-45 213h-117z
" />
    <glyph glyph-name="uni10EE" unicode="&#x10ee;" horiz-adv-x="1284" 
d="M1184 541q0 -570 -518 -570q-536 0 -536 561v1146h319v-502q157 32 203 32q532 -1 532 -578v-89zM866 727q0 226 -213 224q-51 -1 -204 -54v-420q0 -267 217 -267q200 0 200 257v260z" />
    <glyph glyph-name="uni10EF" unicode="&#x10ef;" horiz-adv-x="1169" 
d="M892 424q0 -206 -168 -330t-608 -123v264q311 0 378 35q70 33 70 131q-1 142 -206 175l-157 94l216 375l-367 178l127 223l360 -184l65 119q54 109 -36 112l-202 -47v250h221q165 0 246 -84q117 -125 54 -343l-83 -144l317 -154l-123 -221l-319 160l-86 -161
q301 -119 301 -325z" />
    <glyph glyph-name="uni10F0" unicode="&#x10f0;" horiz-adv-x="1273" 
d="M1153 429q0 -459 -531 -459q-522 0 -522 578h327q0 -337 195 -337q207 0 207 218q0 137 -69 137h-231v261h212q69 -1 69 71t-70 73h-230v263h231q48 0 48 96q0 123 -302 123h-185v243h185q629 0 629 -366q0 -129 -134 -230q152 -84 152 -199t-121 -214q140 -111 140 -258
z" />
  </font>
</defs>
</svg>
